<svg xmlns="http://www.w3.org/2000/svg" viewBox="0 0 64 64" role="img" aria-labelledby="title desc">
  <title id="title">Markdown Viewer favicon</title>
  <desc id="desc">A paper sheet with a folded corner and an orange M on a dark rounded square.</desc>
  <defs>
    <linearGradient id="bg" x1="10" y1="8" x2="54" y2="58" gradientUnits="userSpaceOnUse">
      <stop offset="0" stop-color="#1a2430"/>
      <stop offset="1" stop-color="#0b1015"/>
    </linearGradient>
    <linearGradient id="paper" x1="19" y1="12" x2="43" y2="53" gradientUnits="userSpaceOnUse">
      <stop offset="0" stop-color="#fcf9f1"/>
      <stop offset="1" stop-color="#efe3cf"/>
    </linearGradient>
    <linearGradient id="accent" x1="24" y1="26" x2="39" y2="42" gradientUnits="userSpaceOnUse">
      <stop offset="0" stop-color="#eda15d"/>
      <stop offset="1" stop-color="#d37636"/>
    </linearGradient>
    <filter id="shadow" x="-20%" y="-20%" width="140%" height="140%">
      <feDropShadow dx="0" dy="4" stdDeviation="4" flood-color="#000000" flood-opacity="0.28"/>
    </filter>
  </defs>

  <rect x="4" y="4" width="56" height="56" rx="18" fill="url(#bg)"/>
  <rect x="5" y="5" width="54" height="54" rx="17" fill="none" stroke="#ffffff" stroke-opacity="0.08"/>
  <circle cx="45" cy="18" r="13" fill="#d37636" opacity="0.18"/>

  <g transform="rotate(-4 31 32)" filter="url(#shadow)">
    <path d="M20 11h15.5L46 21.5V47c0 3.3-2.7 6-6 6H20c-3.3 0-6-2.7-6-6V17c0-3.3 2.7-6 6-6Z" fill="url(#paper)"/>
    <path d="M35.5 11v7.4c0 1.7 1.4 3.1 3.1 3.1H46Z" fill="#e8d7bd"/>
    <path d="M20 11h15.5L46 21.5V47c0 3.3-2.7 6-6 6H20c-3.3 0-6-2.7-6-6V17c0-3.3 2.7-6 6-6Z" fill="none" stroke="#171411" stroke-opacity="0.08"/>
    <path d="M23 19h10.5" stroke="#2a241f" stroke-opacity="0.23" stroke-width="2.5" stroke-linecap="round"/>
    <path d="M23 24h15.5" stroke="#2a241f" stroke-opacity="0.15" stroke-width="2.2" stroke-linecap="round"/>
    <path d="M24 41V27.5l7.3 9.7 7.3-9.7V41" fill="none" stroke="url(#accent)" stroke-width="4.7" stroke-linecap="round" stroke-linejoin="round"/>
  </g>
</svg>
